<svg xmlns="http://www.w3.org/2000/svg" width="231" height="52" viewBox="0 0 231 52" fill="none"><path d="M10.3713 5.31356V14.1L2.03572 11.1093L0 17.155L8.46252 20.0822L3.11723 27.0034L8.27136 30.8774L13.4345 23.9014L18.788 31.2217L24.0698 27.3391L18.788 20.0822L27.1244 17.4076L25.2152 11.3624L16.8808 14.1V5.31356H10.3713Z" fill="white"></path><path d="M40.6083 9.63256V15.7405H53.443V19.958H40.6083V26.7205H54.7157V31.1202H35.6997V5.23325H54.7886V9.63256H40.6083Z" fill="white"></path><path d="M80.3093 18.1765C80.3093 26.0664 75.7647 31.1194 67.3292 31.1194H57.4397V5.23286H67.3292C75.7647 5.23286 80.3093 10.2867 80.3093 18.1765ZM75.2191 18.1765C75.2191 12.4317 72.2742 9.45041 67.2568 9.45041H62.3482V26.9023H67.2568C72.2742 26.9023 75.2191 23.921 75.2191 18.1765Z" fill="white"></path><path d="M97.7593 25.4118H86.4153L84.4156 31.1202H79.3618L89.2149 5.23325H94.9597L104.995 31.1202H99.795L97.7593 25.4118ZM96.2684 21.2307L95.2504 18.4312C94.3416 16.068 93.1054 12.6139 92.0509 9.5597C90.9968 12.6139 89.7601 16.068 88.8878 18.4312L87.9062 21.2307H96.2684Z" fill="white"></path><path d="M137.06 5.23286L129.898 31.1198H124.372L121.609 20.3576C120.881 17.3763 120.117 14.2493 119.499 11.1955C118.881 14.2493 118.154 17.3763 117.391 20.3576L114.627 31.1198H109.137L101.939 5.23286H107.065L109.756 15.6676C110.556 18.8671 111.428 22.2484 112.119 25.5207C112.81 22.2484 113.573 18.8671 114.337 15.6312L116.991 5.23286H122.044L124.698 15.6312C125.498 18.8671 126.226 22.2848 126.88 25.5572C127.607 22.2848 128.443 18.8671 129.243 15.6676L131.97 5.23286H137.06Z" fill="white"></path><path d="M152.366 25.4118H141.022L139.022 31.1202H133.969L143.821 5.23325H149.566L159.601 31.1202H154.402L152.366 25.4118ZM150.875 21.2307L149.856 18.4312C148.948 16.068 147.711 12.6139 146.657 9.5597C145.603 12.6139 144.366 16.068 143.494 18.4312L142.512 21.2307H150.875Z" fill="white"></path><path d="M182.431 31.1202H177.378C176.905 30.3568 176.723 29.3019 176.687 28.0296L176.578 25.1937C176.433 21.8849 175.051 20.9761 172.433 20.9761H166.034V31.1198H161.126V5.23286H172.869C178.832 5.23286 181.995 8.17813 181.995 12.541C181.995 15.5223 180.469 17.7402 177.669 18.7218C180.541 19.6306 181.304 21.5578 181.414 24.2481L181.632 28.1021C181.668 29.2298 181.923 30.3568 182.431 31.1202ZM172.579 17.1221C175.233 17.1221 176.942 15.7405 176.942 13.0863C176.942 10.5413 175.233 9.26866 172.397 9.26866H166.034V17.1221H172.579Z" fill="white"></path><path d="M207.808 18.1765C207.808 26.0664 203.263 31.1194 194.827 31.1194H184.938V5.23286H194.827C203.263 5.23286 207.808 10.2867 207.808 18.1765ZM202.718 18.1765C202.718 12.4317 199.772 9.45041 194.755 9.45041H189.847V26.9023H194.755C199.772 26.9023 202.718 23.921 202.718 18.1765Z" fill="white"></path><path d="M209.078 22.5758H213.914C213.986 26.6481 216.713 27.7386 220.313 27.7386C223.694 27.7386 225.548 26.4299 225.548 23.9938C225.548 21.9577 224.203 21.049 220.24 20.2491L218.058 19.8127C213.04 18.8671 209.732 16.6497 209.732 11.9593C209.732 7.66891 213.114 4.65117 219.331 4.65117C226.602 4.65117 229.693 8.06884 229.875 12.9409H225.112C224.93 10.1778 223.512 8.61411 219.404 8.61411C216.277 8.61411 214.75 9.85034 214.75 11.8136C214.75 13.8861 215.95 14.8313 219.804 15.6312L222.058 16.0676C228.166 17.2674 230.638 19.6306 230.638 23.7392C230.638 28.8655 226.639 31.7019 220.167 31.7019C213.259 31.7019 209.114 28.5385 209.078 22.5758Z" fill="white"></path><path d="M37.2748 41.0814V43.0157H41.3384V44.351H37.2748V46.4925H41.7414V47.8855H35.7209V39.6889H41.7642V41.0814H37.2748Z" fill="white"></path><path d="M42.4439 44.8003V39.6889H43.9978V44.8117C43.9978 46.1012 44.7001 46.7111 45.8745 46.7111C47.0484 46.7111 47.7508 46.1012 47.7508 44.8117V39.6889H49.3051V44.8003C49.3051 46.9301 47.9811 48.0582 45.8745 48.0582C43.8137 48.0582 42.4439 46.9297 42.4439 44.8003Z" fill="white"></path><path d="M57.1103 47.8851H55.5102C55.3605 47.6438 55.303 47.3096 55.2916 46.907L55.2571 46.0092C55.2109 44.9613 54.7738 44.6738 53.9445 44.6738H51.9186V47.8851H50.3647V39.6889H54.0828C55.9708 39.6889 56.972 40.6216 56.972 42.0027C56.972 42.9468 56.4887 43.6491 55.6022 43.9597C56.5118 44.2476 56.7535 44.8575 56.7883 45.7095L56.8573 46.9297C56.8686 47.2865 56.9493 47.6434 57.1103 47.8851ZM53.9907 43.4532C54.8313 43.4532 55.3719 43.0157 55.3719 42.1755C55.3719 41.3693 54.8313 40.9667 53.9331 40.9667H51.9186V43.4532H53.9907Z" fill="white"></path><path d="M57.5134 43.7874C57.5134 41.2087 59.1484 39.5048 61.6119 39.5048C64.0636 39.5048 65.6986 41.2087 65.6986 43.7874C65.6986 46.366 64.0636 48.0699 61.6119 48.0699C59.1484 48.0696 57.5134 46.366 57.5134 43.7874ZM64.0867 43.7874C64.0867 41.98 63.1082 40.8746 61.6119 40.8746C60.1152 40.8746 59.1367 41.9796 59.1367 43.7874C59.1367 45.5943 60.1152 46.7001 61.6119 46.7001C63.1082 46.6997 64.0867 45.5943 64.0867 43.7874Z" fill="white"></path><path d="M73.0435 42.3596C73.0435 43.9366 72.0305 45.0189 70.1425 45.0189H68.0934V47.8847H66.5395V39.6885H70.1425C72.0305 39.6889 73.0435 40.7708 73.0435 42.3596ZM71.4778 42.3596C71.4778 41.5076 70.9827 41.0242 70.0735 41.0242H68.0934V43.6836H70.0735C70.9827 43.6836 71.4778 43.2116 71.4778 42.3596Z" fill="white"></path><path d="M75.3926 41.0814V43.0157H79.4562V44.351H75.3926V46.4925H79.8593V47.8855H73.8387V39.6889H79.882V41.0814H75.3926Z" fill="white"></path><path d="M85.8109 46.0781H82.2193L81.5859 47.8851H79.9858L83.1058 39.6885H84.9245L88.1017 47.8851H86.4557L85.8109 46.0781ZM85.3389 44.7537L85.0165 43.8673C84.7286 43.1191 84.3373 42.0255 84.0036 41.0583C83.6698 42.0255 83.2785 43.1191 83.002 43.8673L82.6913 44.7537H85.3389Z" fill="white"></path><path d="M95.4583 39.6889V47.8855H93.7313L91.4519 44.2367C90.9341 43.4192 90.4045 42.5668 89.99 41.7728C90.0363 43.2233 90.0363 44.5359 90.0363 45.7444V47.8858H88.5395V39.6893H90.2666L92.5573 43.3385C93.018 44.0866 93.5934 45.0307 94.0078 45.8019C93.973 44.3514 93.9616 43.0388 93.9616 41.83V39.6889H95.4583Z" fill="white"></path><path d="M106.211 43.7874C106.211 46.2853 104.772 47.8855 102.101 47.8855H98.97V39.6889H102.101C104.772 39.6889 106.211 41.289 106.211 43.7874ZM104.599 43.7874C104.599 41.9683 103.667 41.0242 102.078 41.0242H100.524V46.5497H102.078C103.667 46.5497 104.599 45.6061 104.599 43.7874Z" fill="white"></path><path d="M108.606 41.0814V43.0157H112.669V44.351H108.606V46.4925H113.072V47.8855H107.052V39.6889H113.095V41.0814H108.606Z" fill="white"></path><path d="M113.487 45.1799H115.018C115.042 46.4694 115.905 46.8145 117.044 46.8145C118.115 46.8145 118.702 46.4001 118.702 45.6288C118.702 44.984 118.276 44.6965 117.021 44.4435L116.33 44.3052C114.742 44.0056 113.694 43.3032 113.694 41.8182C113.694 40.4602 114.765 39.5048 116.733 39.5048C119.036 39.5048 120.014 40.5871 120.071 42.1293H118.563C118.506 41.2546 118.056 40.7594 116.756 40.7594C115.766 40.7594 115.282 41.1508 115.282 41.7724C115.282 42.4285 115.662 42.7278 116.883 42.9812L117.596 43.1195C119.53 43.4995 120.313 44.248 120.313 45.5485C120.313 47.1718 119.047 48.0696 116.998 48.0696C114.811 48.0692 113.499 47.0683 113.487 45.1799Z" fill="white"></path><path d="M122.605 39.6889H121.051V47.8855H122.605V39.6889Z" fill="white"></path><path d="M131.377 43.4646V47.8851H130.249L130.03 46.8024C129.455 47.6203 128.511 48.0688 127.36 48.0688C125 48.0688 123.446 46.3652 123.446 43.7866C123.446 41.208 125 39.504 127.498 39.504C129.57 39.504 131.009 40.6435 131.285 42.4168H129.685C129.455 41.461 128.638 40.8625 127.509 40.8625C126.001 40.8625 125.069 41.9792 125.069 43.7866C125.069 45.5936 126.024 46.7107 127.567 46.7107C128.776 46.7107 129.777 45.9163 129.858 44.7189H127.717V43.4642H131.377V43.4646Z" fill="white"></path><path d="M139.355 39.6889V47.8855H137.629L135.349 44.2367C134.831 43.4192 134.302 42.5668 133.888 41.7728C133.934 43.2233 133.934 44.5359 133.934 45.7444V47.8858H132.437V39.6893H134.164L136.455 43.3385C136.916 44.0866 137.491 45.0307 137.906 45.8019C137.87 44.3514 137.859 43.0388 137.859 41.83V39.6889H139.355Z" fill="white"></path></svg>