<?xml version="1.0" encoding="utf-8"?>
<!-- Generator: Adobe Illustrator 21.1.0, SVG Export Plug-In . SVG Version: 6.00 Build 0)  -->
<svg version="1.1" id="Layer_1" xmlns="http://www.w3.org/2000/svg" xmlns:xlink="http://www.w3.org/1999/xlink" x="0px" y="0px"
	 viewBox="0 0 344.3 300.7" style="enable-background:new 0 0 344.3 300.7;" xml:space="preserve">
<style type="text/css">
	.st0{fill:#231F20;}
</style>
<g>
	<path class="st0" d="M45.1,134.3c0,1.5-0.9,2.3-2.6,2.3c-1.8,0-2.6-0.8-2.6-2.3v-20.4c0-1.5,0.9-2.3,2.6-2.3c1.8,0,2.6,0.8,2.6,2.3
		V134.3z M54.2,103.1c-1.8-1.8-3.9-2.6-6.4-2.6H37.1c-2.5,0-4.6,0.9-6.3,2.6c-1.8,1.8-2.6,3.9-2.6,6.4v29.4c0,2.5,0.9,4.6,2.6,6.4
		c1.8,1.8,3.9,2.6,6.4,2.6h10.7c2.5,0,4.6-0.9,6.4-2.6c1.8-1.8,2.6-3.9,2.6-6.4v-29.4C56.8,107,55.9,104.9,54.2,103.1"/>
	<path class="st0" d="M62.4,147.4c0.3,0.3,0.7,0.4,1.1,0.4h8.3c0.5,0,0.8-0.1,1.1-0.4c0.3-0.3,0.4-0.7,0.4-1.1v-20.7l5.5,20.6
		c0.3,1.1,1,1.6,2.1,1.6h8.1c0.5,0,0.8-0.1,1.1-0.4c0.3-0.3,0.4-0.7,0.4-1.1V102c0-0.4-0.2-0.8-0.5-1.1c-0.3-0.3-0.7-0.5-1.1-0.5
		h-8.3c-0.5,0-0.8,0.2-1.1,0.5c-0.3,0.3-0.4,0.7-0.4,1.1v20.2L74.4,102c-0.2-1.1-0.9-1.6-2-1.6h-8.8c-0.4,0-0.8,0.2-1.1,0.5
		c-0.3,0.3-0.5,0.7-0.5,1.1v44.2C62,146.7,62.1,147.1,62.4,147.4"/>
	<path class="st0" d="M96.7,147.4c0.3,0.3,0.7,0.4,1.1,0.4h23.5c0.4,0,0.8-0.1,1.1-0.4c0.3-0.3,0.4-0.7,0.4-1.1v-8.1
		c0-0.4-0.2-0.7-0.4-1c-0.3-0.3-0.7-0.4-1.1-0.4h-13.3v-7h9.3c0.5,0,0.8-0.1,1.1-0.4c0.3-0.3,0.4-0.6,0.4-1v-8.1
		c0-0.4-0.2-0.8-0.4-1.1c-0.3-0.3-0.7-0.4-1.1-0.4h-9.3v-6.9h13.3c0.4,0,0.8-0.1,1.1-0.4c0.3-0.3,0.4-0.7,0.4-1.1v-8.1
		c0-0.4-0.1-0.7-0.4-1c-0.3-0.3-0.7-0.4-1.1-0.4H97.8c-0.4,0-0.8,0.1-1.1,0.4c-0.3,0.3-0.5,0.6-0.5,1v44.3
		C96.2,146.7,96.4,147.1,96.7,147.4"/>
	<path class="st0" d="M144.2,145.2c1.8,1.8,3.9,2.6,6.4,2.6h10.7c2.5,0,4.6-0.9,6.4-2.6c1.8-1.8,2.6-3.9,2.6-6.4v-9
		c0-0.4-0.1-0.8-0.4-1.1c-0.3-0.3-0.7-0.4-1.1-0.4h-8.6c-0.4,0-0.8,0.1-1.1,0.4c-0.3,0.3-0.5,0.7-0.5,1.1v4.5c0,1.5-0.9,2.3-2.6,2.3
		c-1.8,0-2.6-0.8-2.6-2.3v-20.4c0-1.5,0.9-2.3,2.6-2.3c1.8,0,2.6,0.8,2.6,2.3v4.5c0,0.5,0.2,0.8,0.5,1.1c0.3,0.3,0.7,0.4,1.1,0.4
		h8.6c0.5,0,0.8-0.1,1.1-0.4c0.3-0.3,0.4-0.7,0.4-1.1v-8.9c0-2.5-0.9-4.6-2.6-6.4c-1.8-1.8-3.9-2.6-6.4-2.6h-10.7
		c-2.5,0-4.6,0.9-6.3,2.6c-1.8,1.8-2.6,3.9-2.6,6.4v29.4C141.6,141.3,142.5,143.5,144.2,145.2"/>
	<path class="st0" d="M175.7,147.4c0.3,0.3,0.7,0.4,1.1,0.4h22.5c0.5,0,0.8-0.1,1.1-0.4c0.3-0.3,0.4-0.6,0.4-1v-8.1
		c0-0.4-0.2-0.8-0.4-1.1c-0.3-0.3-0.7-0.4-1.1-0.4H187V102c0-0.5-0.2-0.8-0.5-1.1c-0.3-0.3-0.7-0.4-1.1-0.4h-8.6
		c-0.4,0-0.8,0.2-1.1,0.5c-0.3,0.3-0.4,0.7-0.4,1.1v44.3C175.3,146.7,175.4,147.1,175.7,147.4"/>
	<path class="st0" d="M206.7,145.2c1.8,1.8,3.9,2.6,6.4,2.6h10.3c2.5,0,4.6-0.9,6.4-2.6c1.8-1.8,2.6-3.9,2.6-6.4V102
		c0-0.5-0.1-0.8-0.4-1.1c-0.3-0.3-0.7-0.4-1.1-0.4h-8.3c-0.4,0-0.8,0.2-1.1,0.5c-0.3,0.3-0.4,0.7-0.4,1.1v32c0,1.8-0.9,2.6-2.6,2.6
		c-1.8,0-2.6-0.9-2.6-2.6v-32c0-0.5-0.1-0.8-0.4-1.1c-0.3-0.3-0.7-0.4-1.1-0.4h-8.6c-0.4,0-0.8,0.2-1.1,0.5
		c-0.3,0.3-0.4,0.7-0.4,1.1v36.8C204,141.3,204.9,143.5,206.7,145.2"/>
	<path class="st0" d="M238.9,147.4c0.3,0.3,0.7,0.4,1.1,0.4h18.1c2.5,0,4.6-0.9,6.4-2.6c1.8-1.7,2.6-3.9,2.6-6.3v-7.2
		c0-3.8-1.8-6.3-5.3-7.5c3.4-1.2,5.1-3.7,5.1-7.5v-7.2c0-2.5-0.9-4.6-2.6-6.4c-1.7-1.8-3.9-2.6-6.4-2.6h-17.9
		c-0.4,0-0.8,0.1-1.1,0.4c-0.3,0.3-0.5,0.6-0.5,1v44.2C238.4,146.7,238.5,147.1,238.9,147.4 M250.1,129.8h2.7c1.7,0,2.6,1,2.6,3v2.4
		c0,2-0.9,3-2.6,3h-2.7V129.8z M250.1,110.3h2.5c1.7,0,2.6,1,2.6,3v2.3c0,2-0.9,3-2.6,3h-2.5V110.3z"/>
	<path class="st0" d="M30.9,200.4c0.3,0.3,0.7,0.4,1.1,0.4h8.6c0.4,0,0.8-0.1,1.1-0.4c0.3-0.3,0.5-0.7,0.5-1.1v-15.2h10
		c0.4,0,0.8-0.1,1.1-0.4c0.3-0.3,0.4-0.6,0.4-1v-8.1c0-0.4-0.2-0.8-0.4-1.1c-0.3-0.3-0.7-0.4-1.1-0.4h-10v-8.3h12.5
		c0.5,0,0.8-0.1,1.1-0.4c0.3-0.3,0.4-0.7,0.4-1.1v-8.1c0-0.4-0.1-0.7-0.4-1c-0.3-0.3-0.7-0.4-1.1-0.4H32c-0.4,0-0.8,0.1-1.1,0.4
		c-0.3,0.3-0.5,0.6-0.5,1v44.3C30.4,199.7,30.6,200.1,30.9,200.4"/>
	<path class="st0" d="M79,187.4c0,1.5-0.9,2.3-2.6,2.3c-1.8,0-2.6-0.8-2.6-2.3v-20.4c0-1.5,0.9-2.3,2.6-2.3c1.8,0,2.6,0.8,2.6,2.3
		V187.4z M88,156.1c-1.8-1.8-3.9-2.6-6.4-2.6H71c-2.5,0-4.6,0.9-6.3,2.6c-1.8,1.8-2.6,3.9-2.6,6.4v29.4c0,2.5,0.9,4.6,2.6,6.4
		c1.8,1.8,3.9,2.6,6.4,2.6h10.7c2.5,0,4.6-0.9,6.4-2.6c1.8-1.8,2.6-3.9,2.6-6.4v-29.4C90.7,160,89.8,157.9,88,156.1"/>
	<path class="st0" d="M96.7,200.4c0.3,0.3,0.7,0.4,1.1,0.4h8.6c0.5,0,0.8-0.1,1.1-0.4c0.3-0.3,0.4-0.7,0.4-1.1v-14.8h2.3
		c2,0,3,1,3,3v9.4c0,2.6,1,3.9,2.9,3.9h7.7c0.9,0,1.4-0.4,1.4-1.2c0-0.1-0.1-0.5-0.2-1.3c-0.1-0.7-0.2-1.3-0.2-1.7v-10.9
		c0-3.8-1.8-6.3-5.3-7.5c3.6-1.2,5.3-3.7,5.3-7.5v-8.3c0-2.5-0.9-4.6-2.6-6.4c-1.8-1.8-3.9-2.6-6.4-2.6H97.8c-0.4,0-0.8,0.1-1.1,0.4
		c-0.3,0.3-0.5,0.6-0.5,1v44.3C96.2,199.7,96.4,200.1,96.7,200.4 M107.9,164.6h2.6c1.8,0,2.7,1,2.7,3v2.8c0,2-0.9,3-2.7,3h-2.6
		V164.6z"/>
	<path class="st0" d="M30.7,251.2c1.8,1.8,3.9,2.6,6.4,2.6h10.7c2.5,0,4.6-0.9,6.4-2.6c1.8-1.8,2.6-3.9,2.6-6.4v-9
		c0-0.4-0.1-0.8-0.4-1.1c-0.3-0.3-0.7-0.4-1.1-0.4h-8.6c-0.4,0-0.8,0.1-1.1,0.4c-0.3,0.3-0.5,0.7-0.5,1.1v4.5c0,1.5-0.9,2.3-2.6,2.3
		c-1.8,0-2.6-0.8-2.6-2.3v-20.4c0-1.5,0.9-2.3,2.6-2.3c1.8,0,2.6,0.8,2.6,2.3v4.5c0,0.5,0.2,0.8,0.5,1.1c0.3,0.3,0.7,0.4,1.1,0.4
		h8.6c0.5,0,0.8-0.1,1.1-0.4c0.3-0.3,0.4-0.7,0.4-1.1v-8.9c0-2.5-0.9-4.6-2.6-6.4c-1.8-1.8-3.9-2.6-6.4-2.6H37.1
		c-2.5,0-4.6,0.9-6.3,2.6c-1.8,1.8-2.6,3.9-2.6,6.4v29.4C28.1,247.3,29,249.4,30.7,251.2"/>
	<path class="st0" d="M78.8,223.3c0,2-0.9,3-2.7,3h-2.6v-8.8h2.6c1.8,0,2.7,1,2.7,3V223.3z M90.7,251.4c-0.1-0.7-0.2-1.3-0.2-1.7
		v-10.9c0-3.8-1.8-6.3-5.3-7.5c3.6-1.2,5.3-3.7,5.3-7.5v-8.3c0-2.5-0.9-4.6-2.6-6.4c-1.8-1.8-3.9-2.6-6.4-2.6H63.4
		c-0.4,0-0.8,0.1-1.1,0.4c-0.3,0.3-0.5,0.6-0.5,1v44.3c0,0.4,0.2,0.8,0.5,1.1c0.3,0.3,0.7,0.4,1.1,0.4h8.6c0.5,0,0.8-0.1,1.1-0.4
		c0.3-0.3,0.4-0.7,0.4-1.1v-14.8h2.3c2,0,3,1,3,3v9.4c0,2.6,1,3.9,2.9,3.9h7.7c0.9,0,1.4-0.4,1.4-1.2
		C90.8,252.5,90.8,252.1,90.7,251.4"/>
	<path class="st0" d="M96.7,253.3c0.3,0.3,0.7,0.4,1.1,0.4h23.5c0.4,0,0.8-0.1,1.1-0.4c0.3-0.3,0.4-0.7,0.4-1.1v-8.1
		c0-0.4-0.1-0.7-0.4-1c-0.3-0.3-0.7-0.4-1.1-0.4h-13.3v-7h9.3c0.5,0,0.8-0.1,1.1-0.4c0.3-0.3,0.4-0.6,0.4-1V226
		c0-0.4-0.1-0.8-0.4-1.1c-0.3-0.3-0.7-0.4-1.1-0.4h-9.3v-6.9h13.3c0.4,0,0.8-0.1,1.1-0.4c0.3-0.3,0.4-0.7,0.4-1.1v-8.1
		c0-0.4-0.1-0.7-0.4-1c-0.3-0.3-0.7-0.4-1.1-0.4H97.8c-0.4,0-0.8,0.1-1.1,0.4c-0.3,0.3-0.5,0.6-0.5,1v44.3
		C96.2,252.7,96.4,253,96.7,253.3"/>
	<path class="st0" d="M138.7,234.4l1-13.3c0-0.6,0.2-0.8,0.6-0.8c0.4,0,0.6,0.3,0.6,0.8l0.9,13.3H138.7z M155.8,250.9l-4-43.1
		c-0.1-0.9-0.7-1.4-1.7-1.4h-18.4c-1,0-1.5,0.5-1.6,1.4l-4,43.1c-0.1,0.9-0.1,1.4-0.1,1.6c0,0.4,0.1,0.7,0.4,0.9
		c0.3,0.3,0.6,0.4,1,0.4h8.7c1,0,1.5-0.5,1.6-1.6l0.6-9.5h4.3l0.6,9.5c0.1,1,0.7,1.6,1.7,1.6h9.6c0.4,0,0.8-0.1,1.1-0.4
		c0.3-0.3,0.4-0.6,0.4-1C155.9,252.3,155.9,251.8,155.8,250.9"/>
	<path class="st0" d="M156.7,217.7c0.3,0.3,0.7,0.4,1.1,0.4h6.6v34.1c0,0.4,0.2,0.8,0.5,1.1c0.3,0.3,0.7,0.4,1.1,0.4h8.6
		c0.4,0,0.8-0.1,1.1-0.4c0.3-0.3,0.5-0.7,0.5-1.1v-34.1h6.6c0.4,0,0.8-0.1,1.1-0.4c0.3-0.3,0.5-0.7,0.5-1.1V208
		c0-0.5-0.2-0.8-0.5-1.1c-0.3-0.3-0.7-0.4-1.1-0.4h-25c-0.4,0-0.8,0.2-1.1,0.5c-0.3,0.3-0.5,0.7-0.5,1.1v8.6
		C156.2,217,156.4,217.4,156.7,217.7"/>
	<path class="st0" d="M188.8,253.3c0.3,0.3,0.7,0.4,1.1,0.4h8.6c0.5,0,0.8-0.1,1.1-0.4c0.3-0.3,0.4-0.7,0.4-1.1V208
		c0-0.5-0.2-0.8-0.5-1.1c-0.3-0.3-0.7-0.4-1.1-0.4h-8.6c-0.4,0-0.8,0.2-1.1,0.5c-0.3,0.3-0.4,0.7-0.4,1.1v44.2
		C188.4,252.7,188.5,253,188.8,253.3"/>
	<path class="st0" d="M205.2,209.3l4.7,43.1c0.1,0.9,0.6,1.4,1.6,1.4h16.4c1,0,1.6-0.5,1.7-1.4l4.7-43.1c0.1-0.9,0.1-1.4,0.1-1.6
		c0-0.4-0.1-0.7-0.4-0.9c-0.3-0.3-0.6-0.4-1-0.4h-8.7c-0.9,0-1.5,0.6-1.6,1.6l-2.2,29.2c0,0.5-0.2,0.7-0.6,0.7
		c-0.4,0-0.6-0.2-0.6-0.7l-2.1-29.2c-0.1-1.1-0.6-1.6-1.6-1.6h-9.1c-0.4,0-0.7,0.1-1,0.4c-0.3,0.3-0.4,0.6-0.4,0.9
		C205.1,207.9,205.2,208.4,205.2,209.3"/>
	<path class="st0" d="M239.6,253.3c0.3,0.3,0.7,0.4,1.1,0.4h8.6c0.5,0,0.8-0.1,1.1-0.4c0.3-0.3,0.4-0.7,0.4-1.1V208
		c0-0.5-0.2-0.8-0.5-1.1c-0.3-0.3-0.7-0.4-1.1-0.4h-8.6c-0.4,0-0.8,0.2-1.1,0.5c-0.3,0.3-0.4,0.7-0.4,1.1v44.2
		C239.2,252.7,239.3,253,239.6,253.3"/>
	<path class="st0" d="M255.6,217.7c0.3,0.3,0.7,0.4,1.1,0.4h6.6v34.1c0,0.4,0.2,0.8,0.5,1.1c0.3,0.3,0.7,0.4,1.1,0.4h8.6
		c0.4,0,0.8-0.1,1.1-0.4c0.3-0.3,0.5-0.7,0.5-1.1v-34.1h6.6c0.4,0,0.8-0.1,1.1-0.4c0.3-0.3,0.5-0.7,0.5-1.1V208
		c0-0.5-0.2-0.8-0.5-1.1c-0.3-0.3-0.7-0.4-1.1-0.4h-25c-0.4,0-0.8,0.2-1.1,0.5c-0.3,0.3-0.5,0.7-0.5,1.1v8.6
		C255.1,217,255.3,217.4,255.6,217.7"/>
	<path class="st0" d="M286.8,210.1l8.7,29.9v12.3c0,0.4,0.2,0.8,0.5,1.1c0.3,0.3,0.7,0.4,1.1,0.4h8.6c0.4,0,0.8-0.1,1.1-0.4
		c0.3-0.3,0.5-0.7,0.5-1.1v-12.3l8.4-29.8c0.4-1.2,0.5-2.1,0.5-2.5c0-0.8-0.4-1.2-1.2-1.2h-8.6c-0.9,0-1.4,0.5-1.6,1.4l-2.5,11.9
		c-0.1,0.3-0.3,0.4-0.5,0.4c-0.3,0-0.4-0.1-0.5-0.4l-2.8-11.9c-0.2-0.9-0.8-1.4-1.6-1.4h-9.1c-0.9,0-1.3,0.4-1.3,1.2
		C286.3,208.2,286.4,209,286.8,210.1"/>
	<path class="st0" d="M96.7,94.4c0.3,0.3,0.7,0.4,1.1,0.4h23.5c0.4,0,0.8-0.1,1.1-0.4c0.3-0.3,0.4-0.7,0.4-1.1v-8.1
		c0-0.4-0.1-0.7-0.4-1c-0.3-0.3-0.7-0.4-1.1-0.4h-13.3v-7h9.3c0.5,0,0.8-0.1,1.1-0.4c0.3-0.3,0.4-0.6,0.4-1v-8.1
		c0-0.4-0.1-0.8-0.4-1.1c-0.3-0.3-0.7-0.4-1.1-0.4h-9.3v-6.9h13.3c0.4,0,0.8-0.1,1.1-0.4c0.3-0.3,0.4-0.7,0.4-1.1v-8.1
		c0-0.4-0.1-0.7-0.4-1c-0.3-0.3-0.7-0.4-1.1-0.4H97.8c-0.4,0-0.8,0.1-1.1,0.4c-0.3,0.3-0.5,0.6-0.5,1v44.3
		C96.2,93.7,96.4,94.1,96.7,94.4"/>
	<path class="st0" d="M62.4,94.4c0.3,0.3,0.7,0.4,1.1,0.4h8.6c0.5,0,0.8-0.1,1.1-0.4c0.3-0.3,0.4-0.7,0.4-1.1V76.7H79v16.6
		c0,0.4,0.1,0.8,0.4,1.1c0.3,0.3,0.7,0.4,1.1,0.4h8.6c0.5,0,0.8-0.1,1.1-0.4c0.3-0.3,0.4-0.7,0.4-1.1V49c0-0.5-0.2-0.8-0.5-1.1
		c-0.3-0.3-0.7-0.4-1.1-0.4h-8.6c-0.4,0-0.8,0.2-1.1,0.5C79.1,48.2,79,48.6,79,49v16.5h-5.3V49c0-0.5-0.2-0.8-0.5-1.1
		c-0.3-0.3-0.7-0.4-1.1-0.4h-8.6c-0.4,0-0.8,0.2-1.1,0.5C62.1,48.2,62,48.6,62,49v44.2C62,93.7,62.1,94.1,62.4,94.4"/>
	<path class="st0" d="M28.9,58.8c0.3,0.3,0.7,0.4,1.1,0.4h7v34.1c0,0.4,0.2,0.8,0.5,1.1c0.3,0.3,0.7,0.4,1.1,0.4h8.6
		c0.4,0,0.8-0.1,1.1-0.4c0.3-0.3,0.5-0.7,0.5-1.1V59.2h6.6c0.4,0,0.8-0.1,1.1-0.4c0.3-0.3,0.5-0.7,0.5-1.1v-8.6
		c0-0.5-0.2-0.8-0.5-1.1c-0.3-0.3-0.7-0.4-1.1-0.4H29.9c-0.4,0-0.8,0.2-1.1,0.5c-0.3,0.3-0.5,0.7-0.5,1.1v8.6
		C28.4,58.1,28.5,58.5,28.9,58.8"/>
</g>
<g>
</g>
<g>
</g>
<g>
</g>
<g>
</g>
<g>
</g>
<g>
</g>
</svg>
